<?xml version="1.0" encoding="UTF-8"?>
<svg id="Layer_1" data-name="Layer 1" xmlns="http://www.w3.org/2000/svg" width="165.64" height="54.57" viewBox="0 0 165.64 54.57">
  <defs>
    <style>
      .cls-1 {
        fill: #ffd875;
      }

      .cls-2 {
        fill: #fff;
      }

      .cls-3 {
        opacity: .7;
      }
    </style>
  </defs>
  <g>
    <g>
      <path class="cls-2" d="M59.99,28V7.58h4.27v16.89h8.93v3.52h-13.2Z"/>
      <path class="cls-2" d="M82.12,28.31c-1.54,0-2.87-.31-3.99-.94-1.12-.63-1.99-1.53-2.61-2.72-.62-1.18-.93-2.6-.93-4.24v-.03c0-1.63.31-3.04.94-4.21.63-1.17,1.5-2.08,2.62-2.71s2.44-.95,3.95-.95,2.84.31,3.97.94c1.13.63,2,1.53,2.62,2.7.62,1.17.93,2.58.93,4.22v.03c0,1.65-.31,3.07-.93,4.24-.62,1.18-1.49,2.08-2.61,2.71-1.12.63-2.45.94-3.98.94ZM82.14,25.07c.67,0,1.25-.18,1.74-.54.49-.36.87-.89,1.14-1.58.27-.69.4-1.54.4-2.53v-.03c0-.97-.14-1.8-.41-2.5-.27-.69-.66-1.22-1.15-1.58s-1.08-.54-1.75-.54-1.24.18-1.73.55c-.5.37-.88.9-1.15,1.58-.27.69-.41,1.52-.41,2.49v.03c0,.99.13,1.83.4,2.53s.65,1.22,1.15,1.58,1.09.54,1.77.54Z"/>
      <path class="cls-2" d="M92.11,28V7.58h4.27v20.42h-4.27ZM94.26,21.57v-3.35h5.01c1.23,0,2.18-.31,2.86-.94.68-.63,1.02-1.52,1.02-2.67v-.03c0-1.17-.34-2.06-1.02-2.68-.68-.62-1.63-.93-2.86-.93h-5.01v-3.4h6.06c1.43,0,2.69.29,3.76.87,1.08.58,1.91,1.39,2.51,2.44.6,1.05.9,2.27.9,3.68v.03c0,1.4-.3,2.62-.9,3.66-.6,1.05-1.44,1.86-2.51,2.44-1.08.58-2.33.87-3.76.87h-6.06Z"/>
      <path class="cls-2" d="M109.76,28V7.58h4.13v7.87h.08c.4-.94.99-1.67,1.78-2.17.79-.5,1.75-.76,2.88-.76s2.05.24,2.84.73c.79.49,1.4,1.17,1.83,2.06.43.89.64,1.94.64,3.17v9.52h-4.15v-8.67c0-1.06-.25-1.88-.75-2.48s-1.22-.9-2.17-.9c-.6,0-1.13.14-1.58.43-.45.29-.8.68-1.05,1.19s-.38,1.09-.38,1.75v8.69h-4.13Z"/>
      <path class="cls-2" d="M128.75,10.89c-.62,0-1.15-.21-1.58-.64-.43-.43-.64-.94-.64-1.52s.21-1.1.64-1.52c.43-.42.96-.63,1.58-.63s1.15.21,1.57.63c.42.42.64.93.64,1.52s-.21,1.09-.64,1.52c-.42.43-.95.64-1.57.64ZM126.67,28v-15.17h4.15v15.17h-4.15Z"/>
      <path class="cls-2" d="M133.57,28v-15.17h4.13v2.55h.08c.31-.87.84-1.56,1.59-2.08.75-.52,1.63-.78,2.65-.78.71,0,1.34.12,1.91.37.56.25,1.04.6,1.44,1.06.39.46.67,1.03.83,1.7h.08c.23-.64.57-1.2,1.03-1.66.46-.47,1-.83,1.63-1.08.63-.25,1.31-.38,2.06-.38.99,0,1.86.21,2.6.64.74.42,1.32,1.02,1.74,1.78.41.76.62,1.66.62,2.69v10.37h-4.13v-9.32c0-.59-.1-1.09-.29-1.49-.19-.4-.47-.71-.84-.92-.36-.21-.81-.32-1.35-.32s-.97.12-1.37.36c-.39.24-.7.57-.91,1-.22.42-.33.92-.33,1.49v9.21h-3.97v-9.45c0-.55-.1-1.01-.3-1.4-.2-.39-.48-.68-.84-.89-.36-.21-.8-.31-1.31-.31s-.98.12-1.37.38c-.4.25-.71.59-.93,1.03-.22.43-.33.93-.33,1.5v9.15h-4.13Z"/>
    </g>
    <g class="cls-3">
      <path class="cls-2" d="M59.29,45.44v-10.2h1.27v10.2h-1.27ZM59.92,41.8v-1.13h2.67c.73,0,1.3-.19,1.7-.57.4-.38.6-.9.6-1.57h0c0-.69-.2-1.21-.6-1.59-.4-.38-.97-.57-1.7-.57h-2.67v-1.13h3c.64,0,1.21.14,1.7.41.49.27.88.66,1.16,1.15.28.49.42,1.06.42,1.7h0c0,.66-.14,1.23-.42,1.73-.28.5-.67.88-1.16,1.16-.49.28-1.06.42-1.7.42h-3Z"/>
      <path class="cls-2" d="M67.89,45.44v-10.2h1.23v4.02h.03c.2-.42.49-.74.88-.97.39-.23.86-.35,1.41-.35s.98.13,1.38.38c.39.25.7.6.92,1.05s.33.97.33,1.56v4.5h-1.23v-4.29c0-.66-.16-1.18-.48-1.56-.32-.37-.77-.56-1.34-.56-.38,0-.71.09-.99.27-.29.18-.51.43-.67.74s-.24.68-.24,1.1v4.29h-1.23Z"/>
      <path class="cls-2" d="M76.69,36.84c-.21,0-.39-.08-.54-.23-.15-.15-.23-.33-.23-.54s.08-.4.23-.55.33-.22.54-.22.4.07.55.22.22.33.22.55-.07.39-.22.54c-.15.15-.33.23-.55.23ZM76.07,45.44v-7.35h1.23v7.35h-1.23Z"/>
      <path class="cls-2" d="M79.34,45.44v-7.35h1.23v1.08h.03c.16-.36.42-.66.78-.88s.77-.34,1.24-.34c.33,0,.64.06.91.17.27.11.51.27.7.48.2.21.35.46.45.77h.03c.14-.3.32-.55.55-.76.23-.21.49-.37.79-.48.3-.11.62-.17.96-.17.49,0,.91.1,1.27.3s.64.48.83.84c.2.36.3.79.3,1.28v5.08h-1.23v-4.79c0-.34-.06-.63-.18-.87-.12-.24-.29-.42-.52-.55-.23-.13-.5-.19-.83-.19s-.61.07-.86.22-.45.35-.59.62-.21.56-.21.89v4.67h-1.23v-4.93c0-.3-.06-.56-.19-.78-.12-.22-.3-.39-.52-.52-.22-.12-.49-.18-.8-.18-.33,0-.61.08-.87.24-.25.16-.45.37-.6.64-.15.27-.22.58-.22.92v4.61h-1.23Z"/>
      <path class="cls-2" d="M94.73,45.44v-10.2h1.23v4.02h.03c.2-.42.49-.74.88-.97.39-.23.86-.35,1.41-.35s.98.13,1.38.38c.39.25.7.6.92,1.05s.33.97.33,1.56v4.5h-1.23v-4.29c0-.66-.16-1.18-.48-1.56-.32-.37-.77-.56-1.34-.56-.38,0-.71.09-.99.27-.29.18-.51.43-.67.74-.16.32-.24.68-.24,1.1v4.29h-1.23Z"/>
      <path class="cls-2" d="M104.99,45.58c-.49,0-.91-.09-1.28-.28-.37-.18-.65-.44-.86-.78s-.31-.72-.31-1.17h0c0-.43.11-.8.32-1.1.21-.31.51-.55.91-.73.4-.18.88-.29,1.44-.32l2.72-.16v.96l-2.58.16c-.49.03-.87.15-1.14.35-.27.21-.41.48-.41.83h0c0,.37.13.65.4.86.27.21.62.31,1.06.31.39,0,.73-.08,1.04-.24.31-.16.55-.39.74-.67.18-.28.27-.6.27-.95v-2.17c0-.45-.14-.8-.42-1.06-.28-.26-.68-.39-1.19-.39-.47,0-.85.1-1.14.31s-.47.47-.54.8v.06h-1.2v-.08c.04-.41.18-.77.42-1.1.24-.33.57-.59.99-.79.42-.2.92-.29,1.49-.29s1.08.1,1.5.3.75.48.98.84c.23.36.35.79.35,1.28v5.08h-1.23v-1.2h-.03c-.14.27-.33.5-.57.7s-.5.36-.8.47c-.29.11-.61.17-.94.17Z"/>
      <path class="cls-2" d="M111.18,47.92c-.12,0-.24,0-.36-.02s-.22-.02-.3-.04v-1c.05,0,.11.02.18.03.07,0,.14.01.22.01.39,0,.7-.07.94-.21s.42-.41.57-.83l.15-.42-2.73-7.36h1.32l2.12,6.41-.26-.28h.37l-.26.28,2.13-6.41h1.29l-2.87,7.81c-.17.47-.37.85-.59,1.15s-.48.52-.79.66-.68.21-1.12.21Z"/>
      <path class="cls-2" d="M121.21,45.44v-7.35h1.23v1.24h.03c.12-.42.33-.76.64-1.01s.66-.38,1.07-.38c.11,0,.21,0,.29.02s.15.02.2.03v1.2s-.13-.04-.25-.05c-.12-.01-.26-.02-.41-.02-.32,0-.59.07-.83.21-.24.14-.42.35-.55.61s-.19.59-.19.96v4.54h-1.23Z"/>
      <path class="cls-2" d="M128.04,45.58c-.49,0-.91-.09-1.28-.28-.37-.18-.65-.44-.86-.78s-.31-.72-.31-1.17h0c0-.43.11-.8.32-1.1.21-.31.51-.55.91-.73.4-.18.88-.29,1.44-.32l2.72-.16v.96l-2.58.16c-.49.03-.87.15-1.14.35-.27.21-.41.48-.41.83h0c0,.37.13.65.4.86.27.21.62.31,1.06.31.39,0,.73-.08,1.04-.24.31-.16.55-.39.74-.67.18-.28.27-.6.27-.95v-2.17c0-.45-.14-.8-.42-1.06-.28-.26-.68-.39-1.19-.39-.47,0-.85.1-1.14.31s-.47.47-.54.8v.06h-1.2v-.08c.04-.41.18-.77.42-1.1.24-.33.57-.59.99-.79.42-.2.92-.29,1.49-.29s1.08.1,1.5.3.75.48.98.84c.23.36.35.79.35,1.28v5.08h-1.23v-1.2h-.03c-.14.27-.33.5-.57.7s-.5.36-.79.47c-.29.11-.61.17-.94.17Z"/>
      <path class="cls-2" d="M139.9,45.58c-.69,0-1.29-.16-1.81-.47s-.91-.76-1.18-1.33c-.28-.57-.42-1.25-.42-2.03h0c0-.78.14-1.45.42-2.02.28-.57.68-1.01,1.19-1.32s1.1-.47,1.78-.47c.61,0,1.14.12,1.58.36s.78.55,1.04.92c.25.38.4.78.46,1.2v.06s-1.2,0-1.2,0v-.06c-.1-.37-.3-.69-.6-.97-.3-.28-.73-.42-1.27-.42-.42,0-.8.11-1.12.34-.32.22-.57.54-.75.95-.18.41-.27.89-.27,1.45h0c0,.58.09,1.07.27,1.47s.43.72.76.93c.32.22.7.33,1.12.33.5,0,.91-.13,1.23-.39s.52-.59.63-1v-.06h1.22v.05c-.07.47-.24.89-.52,1.26-.28.37-.63.67-1.07.89-.44.22-.93.33-1.49.33Z"/>
      <path class="cls-2" d="M146.62,45.58c-.49,0-.91-.09-1.28-.28-.37-.18-.65-.44-.86-.78s-.31-.72-.31-1.17h0c0-.43.11-.8.31-1.1.21-.31.51-.55.91-.73.4-.18.88-.29,1.44-.32l2.72-.16v.96l-2.58.16c-.49.03-.87.15-1.14.35-.27.21-.41.48-.41.83h0c0,.37.13.65.4.86.27.21.62.31,1.06.31.39,0,.73-.08,1.04-.24.31-.16.55-.39.74-.67.18-.28.27-.6.27-.95v-2.17c0-.45-.14-.8-.42-1.06s-.68-.39-1.19-.39c-.47,0-.85.1-1.14.31-.29.21-.47.47-.54.8v.06h-1.2v-.08c.04-.41.18-.77.42-1.1.24-.33.57-.59.99-.79.42-.2.92-.29,1.49-.29s1.08.1,1.5.3.75.48.98.84c.23.36.35.79.35,1.28v5.08h-1.23v-1.2h-.03c-.14.27-.33.5-.57.7-.24.2-.5.36-.8.47-.29.11-.61.17-.94.17ZM146.77,37.25v-.02c.23-.17.4-.32.52-.47s.18-.29.18-.41c0-.16-.09-.28-.26-.37-.17-.09-.38-.13-.62-.13-.11,0-.2,0-.27.01-.07,0-.13.02-.17.03v-.73c.08-.03.2-.06.33-.09.14-.03.29-.04.46-.04.38,0,.72.1,1.02.3.3.2.45.47.45.81,0,.21-.06.4-.18.59-.12.18-.3.36-.56.52h-.91Z"/>
      <path class="cls-2" d="M155.5,45.44v-10.2h1.23v10.2h-1.23Z"/>
      <path class="cls-2" d="M161.8,45.58c-.68,0-1.27-.16-1.79-.47s-.91-.75-1.2-1.33c-.29-.57-.43-1.25-.43-2.03h0c0-.8.14-1.47.43-2.04.29-.57.68-1.01,1.2-1.32.51-.31,1.1-.46,1.78-.46s1.27.15,1.79.46c.51.31.91.75,1.19,1.32.29.57.43,1.24.43,2.03h0c0,.8-.14,1.47-.43,2.04s-.68,1.01-1.19,1.32c-.51.31-1.1.47-1.78.47ZM161.81,44.5c.43,0,.81-.11,1.13-.32.32-.21.57-.53.74-.93.18-.41.27-.9.27-1.47h0c0-.59-.09-1.08-.27-1.48s-.43-.71-.75-.93c-.32-.21-.7-.32-1.13-.32s-.8.11-1.12.32c-.32.21-.57.52-.75.93-.18.4-.27.89-.27,1.47h0c0,.59.09,1.08.27,1.49.18.41.43.72.75.93.32.21.7.32,1.14.32ZM161.8,48.23c-.21,0-.39-.08-.54-.23-.15-.15-.23-.33-.23-.54s.08-.4.23-.55c.15-.15.33-.22.54-.22s.4.07.55.22.22.33.22.55-.07.39-.22.54c-.15.15-.33.23-.55.23Z"/>
    </g>
  </g>
  <g>
    <path class="cls-1" d="M50.5,27.05c-2.1,11-11.7,19.3-23.3,19.3S5.9,38.05,3.8,27.05c-1.7.6-2.8,2.5-2.2,4.4,3.7,10.6,13.7,18.1,25.5,18.1s21.8-7.6,25.5-18.1c.6-1.9-.4-3.8-2.2-4.4h.1Z"/>
    <path class="cls-1" d="M14.9,35.35c-.4-.9-.7-1.9-.7-3v-2.6c0-1.6-1.3-2.9-2.9-2.9h-1.4c.8,3.3,2.6,6.2,4.9,8.5h.1Z"/>
    <path class="cls-1" d="M45.8,26.85c-1.9,8.5-9.5,14.8-18.6,14.8s-16.7-6.3-18.6-14.8h-2.9c2,10.1,10.9,17.7,21.6,17.7s19.6-7.6,21.6-17.7h-3.1Z"/>
    <path class="cls-1" d="M44.3,26.95c-.8,0-1.7.3-2.4.8l-16.6,10.7c-1.1.7-2.3,1.1-3.4,1.1,1.7.5,3.4.8,5.3.8,8.3,0,15.2-5.7,17.2-13.4h-.1Z"/>
    <path class="cls-2" d="M49.2,20.55C48.2,9.25,38.7.45,27.2.45S6.2,9.25,5.1,20.55c0,1,.6,1.9,1.6,2,1,0,1.8-.6,1.9-1.6C9.5,11.45,17.5,3.95,27.2,3.95s17.7,7.4,18.5,16.9c0,1,.9,1.7,1.9,1.6,1,0,1.7-1,1.6-2h0v.1Z"/>
    <path class="cls-2" d="M36.91,24l1.49-.74c.78-.39,1.1-1.34.71-2.13l-3.54-7.1c-.39-.78-1.34-1.1-2.13-.71l-1.49.74c-1.16-1.48-3.21-1.94-4.89-1.11l-9.94,4.95c-1.96.98-2.76,3.36-1.78,5.32l4.25,8.52c.98,1.96,3.36,2.76,5.32,1.78l9.94-4.95c1.68-.84,2.55-2.75,2.06-4.57M34.15,18.28l1.42-.71.71,1.42-1.42.71-.71-1.42ZM36.27,22.54l-.71-1.42,1.42-.71.71,1.42-1.42.71ZM34.86,16.16l-1.42.71-.71-1.42,1.42-.71.71,1.42Z"/>
  </g>
</svg>